<!DOCTYPE svg PUBLIC "-//W3C//DTD SVG 1.1//EN" "http://www.w3.org/Graphics/SVG/1.1/DTD/svg11.dtd">
<!-- Uploaded to: SVG Repo, www.svgrepo.com, Transformed by: SVG Repo Mixer Tools -->
<svg version="1.1" id="Layer_1" xmlns="http://www.w3.org/2000/svg" xmlns:xlink="http://www.w3.org/1999/xlink" viewBox="0 0 512 512" xml:space="preserve" width="800px" height="800px" fill="#000000">
<g id="SVGRepo_bgCarrier" stroke-width="0"/>
<g id="SVGRepo_tracerCarrier" stroke-linecap="round" stroke-linejoin="round"/>
<g id="SVGRepo_iconCarrier"> <path style="fill:#136f63ba;" d="M159.506,28.163C189.162,15.611,221.77,8.669,256,8.669c136.83,0,247.753,110.923,247.753,247.753 S392.83,504.175,255.999,504.175S8.246,393.252,8.246,256.422c0-69.111,28.298-131.613,73.939-176.55"/> <g> <path style="fill:#136f63;" d="M312.266,263.756h-16.661l-8.006,24.142c0,0,19.748,32.981,24.493,32.085 c4.745-0.897,56.516-15.949,56.516-15.949v-24.017l-24.169-24.142"/> <path style="fill:#136f63;" d="M319.622,344.061l24.017,40.028l-56.04,56.04l-32.022-8.006l-16.012,16.012l8.006,48.034 c-33.675,15.69-64.046-8.006-64.046-8.006l-40.028-64.046l8.006-64.046l-56.04-184.13l72.052-120.084l40.028,24.017l88.062-8.006 l64.046,40.028l-24.017,32.022l-47.5,88.062l-63.512,40.028v24.017l31.488,16.012l23.75,24.017L319.622,344.061z"/> </g> <g> <path style="fill:#136f63;" d="M353.331,194.484c0,14.661-26.545,61.938-26.545,61.938s-26.545-47.278-26.545-61.938 s11.884-26.545,26.545-26.545S353.331,179.823,353.331,194.484z"/> <path style="fill:#136f63;" d="M425.382,362.603c0,14.661-26.545,61.938-26.545,61.938s-26.545-47.278-26.545-61.938 s11.884-26.545,26.545-26.545S425.382,347.942,425.382,362.603z"/> <path style="fill:#136f63;" d="M145.184,34.37c0,14.661-26.545,61.938-26.545,61.938S92.093,49.03,92.093,34.37 s11.885-26.545,26.546-26.545S145.184,19.709,145.184,34.37z"/> <path style="fill:#136f63;" d="M182.263,248.837c0,14.661-26.545,61.938-26.545,61.938s-26.545-47.278-26.545-61.938 s11.884-26.545,26.545-26.545C170.378,222.292,182.263,234.176,182.263,248.837z"/> </g> <path style="fill:#136f63;" d="M464.342,151.925l-15.393,32.022v32.022l-16.629,39.724l39.411,23.713h32.022 c0,0,8.677-50.079-23.708-135.792L464.342,151.925z"/> <path d="M326.786,272.406l-6.824-12.152c-4.6-8.194-27.547-49.868-27.547-65.769c0-18.952,15.418-34.37,34.37-34.37 c18.952,0,34.37,15.418,34.37,34.37c0,15.901-22.947,57.577-27.546,65.769L326.786,272.406z M326.786,175.764 c-10.322,0-18.719,8.398-18.719,18.719c0,6.456,8.686,26.26,18.719,45.493c10.033-19.238,18.719-39.041,18.719-45.493 C345.505,184.162,337.108,175.764,326.786,175.764z"/> <path d="M398.837,440.524l-6.824-12.152c-4.6-8.194-27.547-49.867-27.547-65.768c0-18.952,15.418-34.37,34.37-34.37 c18.952,0,34.37,15.418,34.37,34.37c0,15.901-22.947,57.576-27.547,65.768L398.837,440.524z M398.837,343.883 c-10.322,0-18.719,8.398-18.719,18.719c0,6.451,8.687,26.255,18.719,45.491c10.033-19.237,18.719-39.04,18.719-45.491 C417.557,352.281,409.159,343.883,398.837,343.883z"/> <path d="M118.639,112.293l-6.824-12.152c-4.6-8.194-27.547-49.868-27.547-65.769C84.268,15.418,99.686,0,118.639,0 s34.37,15.418,34.37,34.37c0,15.901-22.947,57.577-27.547,65.769L118.639,112.293z M118.639,15.651 c-10.322,0-18.719,8.398-18.719,18.719c0,6.456,8.686,26.26,18.719,45.493c10.033-19.238,18.72-39.041,18.72-45.493 C137.358,24.049,128.961,15.651,118.639,15.651z"/> <path d="M155.719,326.759l-6.824-12.152c-4.6-8.194-27.547-49.868-27.547-65.769c0-18.952,15.418-34.37,34.37-34.37 s34.37,15.418,34.37,34.37c0,15.901-22.947,57.577-27.547,65.769L155.719,326.759z M155.719,230.117 c-10.322,0-18.719,8.398-18.719,18.719c0,6.456,8.686,26.26,18.719,45.493c10.033-19.238,18.72-39.041,18.72-45.493 C174.438,238.516,166.041,230.117,155.719,230.117z"/> <g> <rect x="111.933" y="121.856" style="fill:#FFFFFF;" width="16.694" height="15.651"/> <rect x="320.609" y="280.45" style="fill:#FFFFFF;" width="15.651" height="15.651"/> </g> <polygon points="333.738,156.814 321.517,147.036 348.048,113.873 293.691,79.9 205.707,87.898 168.728,65.711 157.036,77.403 145.969,66.335 166.302,46.004 209.378,71.85 297.519,63.838 371.253,109.92 "/> <polygon points="103.95,234.131 86.945,174.613 104.963,147.584 117.986,156.266 103.982,177.271 118.999,229.831 "/> <path d="M436.721,75.701C388.448,27.428,324.267,0.844,255.999,0.844c-34.52,0-68.012,6.766-99.544,20.112l6.101,14.413 c29.59-12.525,61.029-18.876,93.443-18.876c64.086,0,124.337,24.957,169.655,70.274c16.234,16.234,29.839,34.392,40.635,53.948 l-26.73,40.983v32.796l-17.702,45.247l47.676,29.056h24.224c-6.947,51.812-30.511,99.687-68.103,137.279 c-45.316,45.317-105.567,70.274-169.655,70.274c-0.586,0-1.171-0.018-1.756-0.022l-6.39-45.419l10.116-10.118l32.015,8.006 l63.478-63.497l-28.977-48.233l-41.17-8.222l-23.371-23.25l-29.062-14.419v-22.324l59.957-29.863l-6.978-14.01l-68.63,34.183v41.721 l35.479,17.603l24.912,24.784l39.011,7.79l19.118,31.822l-48.569,48.583l-32.014-8.006l-21.9,21.905l7.084,50.35 c-14.397-1.039-28.541-3.35-42.304-6.875l-44.381-66.573l7.583-53.08l-15.494-2.213l-8.428,59l36.945,55.417 c-31.897-11.852-61.147-30.532-85.928-55.313C41.029,380.761,16.072,320.51,16.072,256.422c0-64.792,25.429-125.511,71.604-170.974 L76.695,74.294c-49.186,48.43-76.274,113.11-76.274,182.128c0,68.268,26.584,132.449,74.857,180.721 C123.551,485.416,187.732,512,256,512s132.449-26.584,180.722-74.857c48.272-48.272,74.857-112.452,74.857-180.721 S484.993,123.972,436.721,75.701z M473.927,273.146l-32.709-19.934l13.992-35.765v-31.25l18.858-30.098 c14.308,31.058,21.86,65.107,21.86,100.323c0,5.607-0.202,11.184-0.581,16.724H473.927z"/> <path d="M291.156,309.191c-5.401-8.134-10.122-16.235-10.32-16.575l-1.799-3.091l10.977-32.03h22.251v15.651h-11.07l-5.024,14.661 c5.839,9.759,12.822,20.227,16.432,24.176c7.976-2.182,29.995-8.746,46.615-13.76V283.26l-21.091-21.066l11.061-11.073 l25.681,25.651v33.067l-5.557,1.683c-8.582,2.599-51.639,15.612-56.547,16.541L291.156,309.191z"/> <rect x="144.278" y="336.793" style="fill:#FFFFFF;" width="15.651" height="15.651"/> </g>
</svg>