<?xml version="1.0" encoding="UTF-8"?>
<svg version="1.1" xmlns="http://www.w3.org/2000/svg" width="512" height="512">
<path d="M0 0 C132.66 0 265.32 0 402 0 C402 15.84 402 31.68 402 48 C394.13124151 46.87589164 394.13124151 46.87589164 390.73974609 45.69311523 C389.98140472 45.43292099 389.22306335 45.17272675 388.44174194 44.90464783 C387.64370148 44.62544998 386.84566101 44.34625214 386.0234375 44.05859375 C384.2828241 43.46859792 382.54192933 42.87943168 380.80078125 42.29101562 C378.09269 41.36916943 375.3870362 40.44169966 372.68603516 39.49926758 C370.05428515 38.58434771 367.41492085 37.69495747 364.7734375 36.80859375 C363.98754242 36.52737167 363.20164734 36.2461496 362.39193726 35.95640564 C349.8630777 31.81304609 338.81294179 34.41938264 326.69921875 38.53125 C325.25126168 39.00699091 323.80274564 39.48103343 322.35371399 39.95349121 C318.55807234 41.19609628 314.77042081 42.46146809 310.98406982 43.73205566 C307.2094837 44.99423024 303.42773069 46.23451474 299.64648438 47.4765625 C293.79768811 49.39978859 287.95612362 51.34347621 282.11865234 53.30078125 C277.00380532 55.01565573 271.8774466 56.68077171 266.72900391 58.29296875 C265.62780716 58.64307007 264.52661041 58.99317139 263.39204407 59.35388184 C261.39325274 59.98751891 259.39041547 60.60861529 257.38273621 61.21350098 C250.67691397 63.36162172 245.53043188 66.26001418 241.51831055 72.18994141 C239.25057282 77.82853102 237.84944232 83.3907513 236.8125 89.375 C236.64524414 90.30546143 236.47798828 91.23592285 236.30566406 92.19458008 C235.20645482 98.45360038 234.20123116 104.63934564 234 111 C233.97953613 111.63405762 233.95907227 112.26811523 233.93798828 112.92138672 C233.17092295 140.66886575 239.09859258 166.94109524 251.1171875 191.9609375 C252 194 252 194 252 196 C223.80088253 196.0935422 195.60178839 196.16402771 167.40254688 196.20724869 C154.30843219 196.22785251 141.21441404 196.25593155 128.12036133 196.30175781 C116.70435176 196.34169217 105.28841214 196.36744865 93.87233466 196.37635398 C87.83053564 196.38155751 81.78893667 196.39374249 75.74720192 196.42292023 C70.0533654 196.45019346 64.35981018 196.45842093 58.66591454 196.45243073 C56.58309777 196.45352564 54.500271 196.46140808 52.41751099 196.4768219 C38.01958424 196.57809471 24.08684222 196.54429462 13 186 C12.31164063 185.35160156 11.62328125 184.70320312 10.9140625 184.03515625 C-31.93816322 139.98816587 0 61.45283241 0 0 Z M51 132 C50.16666667 135.5 50.16666667 135.5 51 139 C53.57150354 141.60465983 55.25335911 142.86847412 58.88342285 143.50793457 C59.94089722 143.51111694 60.99837158 143.51429932 62.08789062 143.51757812 C63.29264038 143.53018677 64.49739014 143.54279541 65.73864746 143.55578613 C67.67786072 143.54364075 67.67786072 143.54364075 69.65625 143.53125 C71.00476359 143.53394701 72.35327527 143.53783117 73.70178223 143.54284668 C76.52289411 143.54873211 79.34349811 143.54021068 82.16455078 143.52148438 C85.77283405 143.49869415 89.37992717 143.51182254 92.98816681 143.53577423 C95.7712697 143.55025883 98.55409245 143.54561431 101.33720398 143.53526306 C103.31192807 143.53131364 105.28666323 143.54341856 107.26135254 143.55578613 C108.46610229 143.54317749 109.67085205 143.53056885 110.91210938 143.51757812 C111.96958374 143.51439575 113.02705811 143.51121338 114.11657715 143.50793457 C117.74664089 142.86847412 119.42849646 141.60465983 122 139 C122.83333333 135.5 122.83333333 135.5 122 132 C119.42849646 129.39534017 117.74664089 128.13152588 114.11657715 127.49206543 C113.05910278 127.48888306 112.00162842 127.48570068 110.91210938 127.48242188 C109.70735962 127.46981323 108.50260986 127.45720459 107.26135254 127.44421387 C105.32213928 127.45635925 105.32213928 127.45635925 103.34375 127.46875 C101.99523641 127.46605299 100.64672473 127.46216883 99.29821777 127.45715332 C96.47710589 127.45126789 93.65650189 127.45978932 90.83544922 127.47851562 C87.22716595 127.50130585 83.62007283 127.48817746 80.01183319 127.46422577 C77.2287303 127.44974117 74.44590755 127.45438569 71.66279602 127.46473694 C69.68807193 127.46868636 67.71333677 127.45658144 65.73864746 127.44421387 C64.53389771 127.45682251 63.32914795 127.46943115 62.08789062 127.48242188 C60.50167908 127.48719543 60.50167908 127.48719543 58.88342285 127.49206543 C55.25335911 128.13152588 53.57150354 129.39534017 51 132 Z " fill="#000000" transform="translate(32,179)"/>
<path d="M0 0 C1.14783966 0.37277573 2.29567932 0.74555145 3.478302 1.12962341 C7.18516307 2.33667382 10.88559689 3.5621833 14.5859375 4.7890625 C17.12326668 5.62300205 19.66168287 6.45360579 22.20019531 7.28393555 C25.97107828 8.51823862 29.7415136 9.75377761 33.51013184 10.99497986 C40.45676578 13.28096341 47.41490211 15.51496292 54.40625 17.66015625 C55.86122247 18.11065546 57.31614092 18.56132916 58.77099609 19.01220703 C61.3192956 19.80139927 63.87085774 20.57135424 66.42822266 21.33154297 C67.5269873 21.67459473 68.62575195 22.01764648 69.7578125 22.37109375 C70.67916992 22.64928955 71.60052734 22.92748535 72.54980469 23.21411133 C76.20220243 25.03180421 78.25048997 27.67025594 79.78222656 31.42993164 C85.09524236 55.57496112 86.00097728 83.54266324 78.9609375 107.4140625 C78.64745361 108.54352295 78.64745361 108.54352295 78.32763672 109.69580078 C70.19992404 138.57201145 51.55830409 164.58257628 25.13916016 179.43847656 C21.25631682 181.50672477 17.29324079 183.39328287 13.31689453 185.2734375 C10.62113377 186.5785768 7.96151045 187.94519421 5.30078125 189.3203125 C4.32367188 189.82183838 3.3465625 190.32336426 2.33984375 190.84008789 C0.41844544 191.82741998 -1.49969184 192.82113134 -3.4140625 193.82202148 C-14.58434718 199.50545098 -14.58434718 199.50545098 -20.64575195 197.59057617 C-23.79148335 196.3434858 -26.84778938 194.97031414 -29.9140625 193.5390625 C-31.02088379 193.03528076 -32.12770508 192.53149902 -33.26806641 192.01245117 C-51.12932175 183.79720682 -66.64526866 175.01619768 -81.0390625 161.4140625 C-81.750625 160.75535156 -82.4621875 160.09664062 -83.1953125 159.41796875 C-105.9019248 137.71568738 -115.90074572 104.7465053 -117.02001953 74.1418457 C-117.72288687 39.01915155 -117.72288687 39.01915155 -110.58886719 26.96337891 C-106.96098724 23.33619369 -103.10142047 22.33444004 -98.265625 20.84765625 C-97.2857663 20.53167984 -96.30590759 20.21570343 -95.2963562 19.89015198 C-92.09058122 18.86083204 -88.87779893 17.85572132 -85.6640625 16.8515625 C-83.44945634 16.14778409 -81.23526611 15.44269554 -79.02148438 14.73632812 C-74.53164721 13.30631805 -70.03890007 11.8860044 -65.54394531 10.47216797 C-59.56783844 8.58834959 -53.61039475 6.65111819 -47.65625 4.69921875 C-45.09207532 3.86510518 -42.52730173 3.03287537 -39.96209717 2.20193481 C-38.36127753 1.68141338 -36.7616765 1.15712747 -35.16339111 0.62887573 C-32.94871633 -0.10117015 -30.72924203 -0.81425693 -28.5078125 -1.5234375 C-26.65833008 -2.12478516 -26.65833008 -2.12478516 -24.77148438 -2.73828125 C-15.70852011 -4.79653687 -8.69479334 -2.9138683 0 0 Z M20.5234375 71.6015625 C19.22986328 72.68824219 19.22986328 72.68824219 17.91015625 73.796875 C13.27379582 77.91126108 8.7367788 82.12752175 4.21875 86.37109375 C1.17295786 89.22815462 -1.93515167 91.9998159 -5.1015625 94.72265625 C-8.37504477 97.58035347 -11.55265049 100.54526413 -14.7421875 103.49609375 C-16.81267633 105.22502235 -18.62556667 106.26984203 -21.0390625 107.4140625 C-21.89286499 106.50527344 -21.89286499 106.50527344 -22.76391602 105.578125 C-24.89479153 103.32758114 -27.04129945 101.0935054 -29.19946289 98.86914062 C-30.58370824 97.43259138 -31.94924315 95.97808888 -33.31445312 94.5234375 C-34.19423828 93.62109375 -35.07402344 92.71875 -35.98046875 91.7890625 C-37.18231812 90.53222656 -37.18231812 90.53222656 -38.40844727 89.25 C-41.83406047 86.85922401 -43.94612212 86.91086895 -48.0390625 87.4140625 C-50.67920144 89.78341796 -51.88984766 91.27929283 -52.35546875 94.8203125 C-51.94517304 98.18372425 -50.86671524 99.2816586 -48.5390625 101.7265625 C-47.72953125 102.57992187 -46.92 103.43328125 -46.0859375 104.3125 C-45.07127019 105.34729409 -44.05553275 106.38103936 -43.0390625 107.4140625 C-42.40677734 108.06536133 -41.77449219 108.71666016 -41.12304688 109.38769531 C-39.02034121 111.55096049 -36.90709556 113.70330636 -34.7890625 115.8515625 C-34.10392578 116.54999268 -33.41878906 117.24842285 -32.71289062 117.96801758 C-27.93102232 122.99108665 -27.93102232 122.99108665 -22.0390625 126.4140625 C-17.32147399 125.5501924 -14.58617858 123.48598782 -11.1640625 120.2265625 C-9.86855469 119.01419922 -9.86855469 119.01419922 -8.546875 117.77734375 C-7.71929687 116.99746094 -6.89171875 116.21757812 -6.0390625 115.4140625 C-4.7122632 114.23997029 -3.3794308 113.07263995 -2.0390625 111.9140625 C0.93485461 109.32752938 3.85874493 106.69212125 6.7734375 104.0390625 C10.31253752 100.83753817 13.93196856 97.78260187 17.6484375 94.7890625 C21.49787943 91.67362433 25.10480459 88.47691969 28.52734375 84.8984375 C29.9609375 83.4140625 29.9609375 83.4140625 32.3359375 81.3515625 C34.59811116 78.65435545 35.03263363 76.92717269 34.9609375 73.4140625 C32.9609375 70.4140625 32.9609375 70.4140625 29.9609375 68.4140625 C25.66897407 67.8208643 23.77879107 68.8652601 20.5234375 71.6015625 Z " fill="#000000" transform="translate(397.0390625,230.5859375)"/>
<path d="M0 0 C1.38361912 -0.00461927 2.76723332 -0.01097902 4.15083742 -0.01890898 C7.92022118 -0.03548495 11.68919574 -0.02741008 15.45858026 -0.0149641 C19.53637367 -0.00586739 23.61409953 -0.01990612 27.69187927 -0.03088379 C35.66733873 -0.04862454 43.64264719 -0.04484891 51.61811244 -0.03323323 C58.10276643 -0.02418163 64.58737825 -0.02298236 71.07203674 -0.02732849 C71.9966922 -0.02794142 72.92134767 -0.02855436 73.87402299 -0.02918586 C75.75273082 -0.03046483 77.63143864 -0.03176168 79.51014644 -0.03307623 C97.10651663 -0.04446901 114.70280333 -0.03138878 132.29915982 -0.00987476 C147.3815699 0.00799503 162.4638568 0.00489056 177.54626465 -0.0135498 C195.08177768 -0.03497955 212.61721761 -0.04337049 230.15274191 -0.03110075 C232.02434888 -0.02982662 233.89595587 -0.02856914 235.76756287 -0.02732849 C236.68831141 -0.02671139 237.60905995 -0.02609429 238.55770996 -0.02545848 C245.03088727 -0.0220119 251.50401802 -0.027819 257.97718811 -0.0372467 C265.87112501 -0.04849147 273.7649029 -0.04537471 281.6588217 -0.02412373 C285.68266013 -0.01364654 289.70623393 -0.0094342 293.73007011 -0.02272034 C297.42014691 -0.03471974 301.10971607 -0.02795908 304.79974741 -0.00681013 C306.75275763 -0.00028993 308.70580364 -0.01321237 310.65877581 -0.02703905 C323.65522998 0.08751433 334.2487419 3.68329016 343.9197998 12.50793457 C354.4258427 24.63029175 354.9197998 37.7966036 354.9197998 53.50793457 C222.2597998 53.50793457 89.5997998 53.50793457 -47.0802002 53.50793457 C-47.0802002 27.66443324 -47.0802002 27.66443324 -42.0802002 19.50793457 C-41.64578613 18.76672363 -41.21137207 18.0255127 -40.76379395 17.26184082 C-31.47006475 3.25505237 -15.75389053 -0.11153459 0 0 Z " fill="#000000" transform="translate(79.0802001953125,82.4920654296875)"/>
<path d="M0 0 C132.66 0 265.32 0 402 0 C402 4.29 402 8.58 402 13 C269.34 13 136.68 13 0 13 C0 8.71 0 4.42 0 0 Z " fill="#000000" transform="translate(32,151)"/>
</svg>
